<?xml version="1.0" encoding="UTF-8"?>
<svg width="68px" height="136px" viewBox="0 0 68 136" version="1.1" xmlns="http://www.w3.org/2000/svg" xmlns:xlink="http://www.w3.org/1999/xlink">
    <title>Achievements_no_blip</title>
    <g id="Achievements_no_blip" stroke="none" stroke-width="1" fill="none" fill-rule="evenodd">
        <g id="Next">
            <path d="M64,32 C64,49.673 49.673,64 32,64 C14.327,64 0,49.673 0,32 C0,14.327 14.327,0 32,0 C49.673,0 64,14.327 64,32 Z" id="Fill-66" fill="#027802"></path>
            <polygon id="Fill-68" fill="#FFFFFF" points="44 32 24 20 24 25.369 35.2307692 32 24 38.63 24 44"></polygon>
        </g>
        <g id="Next" transform="translate(0.000000, 68.000000)">
            <path d="M32,0 L32,0 C49.673,0 64,14.327 64,32 C64,49.673 49.673,64 32,64 C14.327,64 0,49.673 0,32 C0,14.327 14.327,0 32,0" id="Fill-66" fill="#004600"></path>
            <polygon id="Fill-68" fill="#FFFFFF" points="44 32 24 20 24 25.369 35.2307692 32 24 38.63 24 44"></polygon>
        </g>
        <circle id="Oval-Copy-2" stroke="#FFFFFF" stroke-width="2" fill="#2A205C" cx="32" cy="32" r="31"></circle>
        <circle id="Oval-Copy-3" stroke="#FFFFFF" stroke-width="2" fill="#20174B" cx="32" cy="100" r="31"></circle>
        <polygon id="Fill-1-Copy-2" fill="#FFFFFF" points="25 47.9552239 38.7910448 47.9552239 38.7831642 45.0409654 25.0078806 45"></polygon>
        <polygon id="Fill-1-Copy-3" fill="#FFFFFF" points="25 115.955224 38.7910448 115.955224 38.7831642 113.040965 25.0078806 113"></polygon>
        <path d="M24.4360354,20 L24.4360354,21.6782753 L18,21.6782753 L18,27.3542023 L22.3443239,31.7470879 L24.4360354,31.7470879 L24.4360354,33.2281658 L28.9063218,37.4246932 L29.3715552,40.4120232 L26.9405726,42.6567164 L36.134909,42.6567164 L33.7701257,40.4019536 L34.4229236,37.4733632 L39.1469736,33.2281658 L39.1469736,31.7470879 L40.7329966,31.7470879 L45.5820896,27.3542023 L45.5820896,21.6782753 L39.1469736,21.6782753 L39.1469736,20 L24.4360354,20 Z M38.6865672,22.9552239 L43.6119403,22.9552239 L43.6119403,26.3478209 L39.5701791,29.8507463 L38.6865672,29.8507463 L38.6865672,22.9552239 Z M19.9701493,26.3478209 L19.9701493,22.9552239 L24.8955224,22.9552239 L24.8955224,29.8507463 L23.4701194,29.8507463 L19.9701493,26.3478209 Z" id="Fill-2-Copy-2" fill="#FFFFFF"></path>
        <path d="M24.4360354,88 L24.4360354,89.6782753 L18,89.6782753 L18,95.3542023 L22.3443239,99.7470879 L24.4360354,99.7470879 L24.4360354,101.228166 L28.9063218,105.424693 L29.3715552,108.412023 L26.9405726,110.656716 L36.134909,110.656716 L33.7701257,108.401954 L34.4229236,105.473363 L39.1469736,101.228166 L39.1469736,99.7470879 L40.7329966,99.7470879 L45.5820896,95.3542023 L45.5820896,89.6782753 L39.1469736,89.6782753 L39.1469736,88 L24.4360354,88 Z M38.6865672,90.9552239 L43.6119403,90.9552239 L43.6119403,94.3478209 L39.5701791,97.8507463 L38.6865672,97.8507463 L38.6865672,90.9552239 Z M19.9701493,94.3478209 L19.9701493,90.9552239 L24.8955224,90.9552239 L24.8955224,97.8507463 L23.4701194,97.8507463 L19.9701493,94.3478209 Z" id="Fill-2-Copy-3" fill="#FFFFFF"></path>
    </g>
</svg>