<?xml version="1.0" encoding="UTF-8"?>
<svg width="68px" height="68px" viewBox="0 0 68 68" version="1.1" xmlns="http://www.w3.org/2000/svg" xmlns:xlink="http://www.w3.org/1999/xlink">
    <title>audio on</title>
    <g id="audio-on" stroke="none" stroke-width="1" fill="none" fill-rule="evenodd">
        <g id="Audio">
            <path d="M31.9874948,64 L31.9874948,64 C14.3145925,63.9919943 -0.00600045807,49.660397 0,31.9874948 C0.00800501185,14.3145925 14.3396023,-0.00600045807 32.0125045,0 C49.6854068,0.00700462114 64.0070002,14.3396023 64,32.0125045 C63.9929947,49.6854068 49.660397,64.0070002 31.9874948,64" id="Fill-8" fill="#004600"></path>
            <path d="M36.1874168,24 L35.006646,25.0745035 C37.065795,26.9910215 38.3407173,29.6120823 38.3396097,32.5 C38.3373944,35.3899394 37.0602567,38.0089785 35,39.9234748 L36.1785555,41 C38.5389894,38.8125818 39.9988917,35.8144845 40,32.5010108 C40.001107,29.188548 38.5456354,26.1884291 36.1874168,24" id="Fill-10" fill="#FFFFFF"></path>
            <path d="M39.108483,20 L38.0102828,21.0594324 C40.7578398,23.7476926 42.4606671,27.4348745 42.4586106,31.500992 C42.456554,35.5661175 40.7526985,39.2523074 38,41.9385836 L39.0982002,43 C42.126477,40.0458898 43.9979417,35.9867161 44,31.501984 C44.0020549,27.0162598 42.1336749,22.9551022 39.108483,20" id="Fill-12" fill="#FFFFFF"></path>
            <polygon id="Fill-14" fill="#FFFFFF" points="32 23 27.500375 27.4979991 20.0039997 27.4949978 20 36.4949978 27.4963753 36.4979991 31.9920007 41"></polygon>
        </g>
    </g>
</svg>