<?xml version="1.0" encoding="UTF-8"?>
<svg width="68px" height="136px" viewBox="0 0 68 136" version="1.1" xmlns="http://www.w3.org/2000/svg" xmlns:xlink="http://www.w3.org/1999/xlink">
    <title>audio off</title>
    <g id="audio-off" stroke="none" stroke-width="1" fill="none" fill-rule="evenodd">
        <g id="Mute">
            <path d="M32,64 L32,64 C14.327,64 0,49.673 0,32 C0,14.326 14.327,0 32,0 C49.673,0 64,14.326 64,32 C64,49.673 49.673,64 32,64" id="Fill-16" fill="#027802"></path>
            <polygon id="Fill-18" fill="#FFFFFF" points="32 23 27.4991287 27.5 20 27.5 20 36.5 27.4991287 36.5 32 41"></polygon>
            <polygon id="Fill-20" fill="#FFFFFF" points="42.8857048 37 35 29.1142952 36.1142952 28 44 35.884709"></polygon>
            <polygon id="Fill-22" fill="#FFFFFF" points="36.1142952 37 35 35.884709 42.8857048 28 44 29.1142952"></polygon>
        </g>
        <g id="Mute" transform="translate(0.000000, 68.000000)">
            <path d="M32,64 L32,64 C14.327,64 0,49.673 0,32 C0,14.326 14.327,0 32,0 C49.673,0 64,14.326 64,32 C64,49.673 49.673,64 32,64" id="Fill-16" fill="#004600"></path>
            <polygon id="Fill-18" fill="#FFFFFF" points="32 23 27.4991287 27.5 20 27.5 20 36.5 27.4991287 36.5 32 41"></polygon>
            <polygon id="Fill-20" fill="#FFFFFF" points="42.8857048 37 35 29.1142952 36.1142952 28 44 35.884709"></polygon>
            <polygon id="Fill-22" fill="#FFFFFF" points="36.1142952 37 35 35.884709 42.8857048 28 44 29.1142952"></polygon>
        </g>
    </g>
</svg>