<?xml version="1.0" encoding="UTF-8"?>
<svg width="68px" height="136px" viewBox="0 0 68 136" version="1.1" xmlns="http://www.w3.org/2000/svg" xmlns:xlink="http://www.w3.org/1999/xlink">
    <title>back desktop</title>
    <g id="back-desktop" stroke="none" stroke-width="1" fill="none" fill-rule="evenodd">
        <g id="Back">
            <path d="M0,32 C0,14.326 14.327,0 32,0 C49.673,0 64,14.326 64,32 C64,49.673 49.673,64 32,64 C14.327,64 0,49.673 0,32 Z" id="Fill-27" fill="#027802"></path>
            <polygon id="Fill-28" fill="#FFFFFF" points="20 31.666 30.666 42.333 34.222 38.777 29.445 34.333 44 34.333 44 28.999 29.445 28.999 34.222 24.556 30.666 21"></polygon>
        </g>
        <g id="Back" transform="translate(0.000000, 68.000000)">
            <path d="M32,64 L32,64 C14.327,64 0,49.673 0,32 C0,14.326 14.327,0 32,0 C49.673,0 64,14.326 64,32 C64,49.673 49.673,64 32,64" id="Fill-27" fill="#004600"></path>
            <polygon id="Fill-28" fill="#FFFFFF" points="20 31.666 30.666 42.333 34.222 38.777 29.445 34.333 44 34.333 44 28.999 29.445 28.999 34.222 24.556 30.666 21"></polygon>
        </g>
    </g>
</svg>