<?xml version="1.0" encoding="UTF-8"?>
<svg width="68px" height="136px" viewBox="0 0 68 136" version="1.1" xmlns="http://www.w3.org/2000/svg" xmlns:xlink="http://www.w3.org/1999/xlink">
    <title>close</title>
    <g id="close" stroke="none" stroke-width="1" fill="none" fill-rule="evenodd">
        <g id="Close">
            <path d="M32,64 L32,64 C14.327,64 0,49.674 0,32 C0,14.327 14.327,0 32,0 C49.673,0 64,14.327 64,32 C64,49.674 49.673,64 32,64" id="Fill-47" fill="#027802"></path>
            <polygon id="Fill-48" fill="#FFFFFF" points="33.773 32 40 38.233 38.233 40 32 33.773 25.773 40 24 38.233 30.233 32 24 25.773 25.773 24 32 30.233 38.233 24 40 25.773"></polygon>
        </g>
        <g id="Close" transform="translate(0.000000, 68.000000)">
            <path d="M0,32 C0,14.327 14.327,0 32,0 C49.673,0 64,14.327 64,32 C64,49.674 49.673,64 32,64 C14.327,64 0,49.674 0,32 Z" id="Fill-47" fill="#004600"></path>
            <polygon id="Fill-48" fill="#FFFFFF" points="33.773 32 40 38.233 38.233 40 32 33.773 25.773 40 24 38.233 30.233 32 24 25.773 25.773 24 32 30.233 38.233 24 40 25.773"></polygon>
        </g>
    </g>
</svg>