<?xml version="1.0" encoding="UTF-8"?>
<svg width="68px" height="68px" viewBox="0 0 68 68" version="1.1" xmlns="http://www.w3.org/2000/svg" xmlns:xlink="http://www.w3.org/1999/xlink">
    <title>Exit Desktop</title>
    <g id="Exit-Desktop" stroke="none" stroke-width="1" fill="none" fill-rule="evenodd">
        <g id="Exit" transform="translate(-1.000000, 0.000000)">
            <path d="M32.6426585,64.1645292 C14.9696585,64.1645292 0.642658462,49.8375292 0.642658462,32.1645292 C0.642658462,14.4905292 14.9696585,0.164529231 32.6426585,0.164529231 C50.3156585,0.164529231 64.6426585,14.4905292 64.6426585,32.1645292 C64.6426585,49.8375292 50.3156585,64.1645292 32.6426585,64.1645292 Z" id="Fill-1" fill="#027802"></path>
            <polygon id="Fill-3" fill="#FFFFFF" points="24.2734277 19.8568369 24.2734277 23.5491446 25.7503508 22.0722215 25.7503508 21.33376 40.5195815 21.33376 40.5195815 42.0106831 25.7503508 42.0106831 25.7503508 41.2722215 24.2734277 39.7952985 24.2734277 43.4876062 41.9965046 43.4876062 41.9965046 19.8568369"></polygon>
            <polygon id="Fill-5" fill="#FFFFFF" points="27.2272738 22.8106831 18.3657354 31.6722215 27.2272738 40.53376 30.18112 37.5799138 26.21312 33.8876062 38.3041969 33.8876062 38.3041969 29.4568369 26.21312 29.4568369 30.18112 25.7645292"></polygon>
        </g>
    </g>
</svg>