<?xml version="1.0" encoding="UTF-8"?>
<svg width="68px" height="136px" viewBox="0 0 68 136" version="1.1" xmlns="http://www.w3.org/2000/svg" xmlns:xlink="http://www.w3.org/1999/xlink">
    <title>Home Desktop</title>
    <g id="Home-Desktop" stroke="none" stroke-width="1" fill="none" fill-rule="evenodd">
        <g id="Home">
            <path d="M0.2624,32.1645292 C0.2624,14.4905292 14.5894,0.164529231 32.2624,0.164529231 C49.9354,0.164529231 64.2624,14.4905292 64.2624,32.1645292 C64.2624,49.8375292 49.9354,64.1645292 32.2624,64.1645292 C14.5894,64.1645292 0.2624,49.8375292 0.2624,32.1645292 Z" id="Fill-44" fill="#027802"></path>
            <polygon id="Fill-45" fill="#FFFFFF" points="31.7570954 22.8808862 22.9083569 31.7306092 22.9083569 42.4717785 29.5545108 42.4717785 29.5545108 35.1482092 33.98528 35.1482092 33.98528 42.4717785 40.6314338 42.4717785 40.6314338 31.7571938 31.7698954 22.8956554"></polygon>
            <polygon id="Fill-46" fill="#FFFFFF" points="40.6316308 27.7635938 40.6316308 21.8559015 37.6777846 21.8559015 37.6777846 24.8097477 32.8147692 19.9467323 31.7700923 18.9020554 30.7254154 19.9467323 19.9547077 30.7184246 19.9547077 32.8067938 31.7700923 20.9904246 43.5854769 32.8058092 43.5854769 30.71744"></polygon>
        </g>
        <g id="Home" transform="translate(0.000000, 68.000000)">
            <path d="M32.2624,64.1645292 L32.2624,64.1645292 C14.5894,64.1645292 0.2624,49.8375292 0.2624,32.1645292 C0.2624,14.4905292 14.5894,0.164529231 32.2624,0.164529231 C49.9354,0.164529231 64.2624,14.4905292 64.2624,32.1645292 C64.2624,49.8375292 49.9354,64.1645292 32.2624,64.1645292" id="Fill-44" fill="#004600"></path>
            <polygon id="Fill-45" fill="#FFFFFF" points="31.7570954 22.8808862 22.9083569 31.7306092 22.9083569 42.4717785 29.5545108 42.4717785 29.5545108 35.1482092 33.98528 35.1482092 33.98528 42.4717785 40.6314338 42.4717785 40.6314338 31.7571938 31.7698954 22.8956554"></polygon>
            <polygon id="Fill-46" fill="#FFFFFF" points="40.6316308 27.7635938 40.6316308 21.8559015 37.6777846 21.8559015 37.6777846 24.8097477 32.8147692 19.9467323 31.7700923 18.9020554 30.7254154 19.9467323 19.9547077 30.7184246 19.9547077 32.8067938 31.7700923 20.9904246 43.5854769 32.8058092 43.5854769 30.71744"></polygon>
        </g>
    </g>
</svg>