<?xml version="1.0" encoding="UTF-8"?>
<svg width="248px" height="66px" viewBox="0 0 248 66" version="1.1" xmlns="http://www.w3.org/2000/svg" xmlns:xlink="http://www.w3.org/1999/xlink">
    <title>How to play</title>
    <g id="How-to-play" stroke="none" stroke-width="1" fill="none" fill-rule="evenodd">
        <g>
            <polygon id="Fill-28" fill="#027802" points="0 64 248 64 248 0 0 0"></polygon>
            <path d="M39.383,32.015 C38.505,32.668 37.568,33.201 37.38,34.408 L37.38,35 L34.628,35 L34.628,34.265 C34.747,32.488 35.588,31.693 36.405,31.055 C37.2,30.425 38.273,29.96 38.273,28.858 C38.273,27.613 37.237,27.021 36.157,27.021 C34.688,27.021 33.383,28.22 33.361,29.668 L30.728,29.668 C30.795,26.75 33.037,24.628 36.015,24.628 C39.87,24.628 41.483,26.998 41.483,28.573 C41.483,30.553 40.26,31.34 39.383,32.015 L39.383,32.015 Z M34.606,39.5 L37.606,39.5 L37.606,36.5 L34.606,36.5 L34.606,39.5 Z M36,20 C29.378,20 24,25.378 24,32 C24,38.63 29.378,44 36,44 C42.63,44 48,38.63 48,32 C48,25.378 42.63,20 36,20 L36,20 Z" id="Fill-30" fill="#FFFFFF"></path>
            <text font-family="BBCReithSans-Bold, BBC Reith Sans, Arial" font-size="24" font-weight="bold" fill="#FFFFFF">
                <tspan x="71" y="41">How </tspan>
                <tspan x="128.504" y="41" letter-spacing="-0.3624">t</tspan>
                <tspan x="137.6936" y="41">o pl</tspan>
                <tspan x="180.0296" y="41" letter-spacing="-0.24">a</tspan>
                <tspan x="192.7976" y="41">y</tspan>
            </text>
        </g>
    </g>
</svg>