<?xml version="1.0" encoding="UTF-8"?>
<svg width="68px" height="136px" viewBox="0 0 68 136" version="1.1" xmlns="http://www.w3.org/2000/svg" xmlns:xlink="http://www.w3.org/1999/xlink">
    <title>next</title>
    <g id="next" stroke="none" stroke-width="1" fill="none" fill-rule="evenodd">
        <g id="Next">
            <path d="M64,32 C64,49.673 49.673,64 32,64 C14.327,64 0,49.673 0,32 C0,14.327 14.327,0 32,0 C49.673,0 64,14.327 64,32 Z" id="Fill-66" fill="#027802"></path>
            <polygon id="Fill-68" fill="#FFFFFF" points="44 32 24 20 24 25.369 35.2307692 32 24 38.63 24 44"></polygon>
        </g>
        <g id="Next" transform="translate(0.000000, 68.000000)">
            <path d="M32,0 L32,0 C49.673,0 64,14.327 64,32 C64,49.673 49.673,64 32,64 C14.327,64 0,49.673 0,32 C0,14.327 14.327,0 32,0" id="Fill-66" fill="#004600"></path>
            <polygon id="Fill-68" fill="#FFFFFF" points="44 32 24 20 24 25.369 35.2307692 32 24 38.63 24 44"></polygon>
        </g>
    </g>
</svg>