<?xml version="1.0" encoding="UTF-8"?>
<svg width="124px" height="250px" viewBox="0 0 124 250" version="1.1" xmlns="http://www.w3.org/2000/svg" xmlns:xlink="http://www.w3.org/1999/xlink">
    <title>Replay</title>
    <g id="Replay" stroke="none" stroke-width="1" fill="none" fill-rule="evenodd">
        <g transform="translate(-1.000000, 0.000000)">
            <path d="M120.6527,60.1378 C120.6527,93.2748 93.7897,120.1378 60.6527,120.1378 C27.5157,120.1378 0.6527,93.2748 0.6527,60.1378 C0.6527,26.9998 27.5157,0.1378 60.6527,0.1378 C93.7897,0.1378 120.6527,26.9998 120.6527,60.1378" id="Fill-31" fill="#027802"></path>
            <path d="M74.1527,63.1378 C74.1527,70.9948 67.7597,77.3878 59.9027,77.3878 C52.0457,77.3878 45.6527,70.9948 45.6527,63.1378 C45.6527,55.2808 52.0457,48.8878 59.9027,48.8878 C60.1537,48.8878 60.4027,48.8738 60.6527,48.8878 L60.6527,42.8878 C60.4007,42.8788 60.1537,42.8878 59.9027,42.8878 C48.7187,42.8878 39.6527,51.9528 39.6527,63.1378 C39.6527,74.3218 48.7187,83.3878 59.9027,83.3878 C71.0867,83.3878 80.1527,74.3218 80.1527,63.1378 C80.1527,62.8838 80.1617,62.6398 80.1527,62.3878 L74.1527,62.3878 C74.1657,62.6378 74.1527,62.8838 74.1527,63.1378" id="Fill-32" fill="#FFFFFF"></path>
            <polygon id="Fill-33" fill="#FFFFFF" points="63.6527 35.3878 63.6527 56.3878 81.6527 45.8878"></polygon>
        </g>
        <g transform="translate(-1.000000, 125.000000)">
            <path d="M60.6527,120.1378 C27.5157,120.1378 0.6527,93.2748 0.6527,60.1378 C0.6527,26.9998 27.5157,0.1378 60.6527,0.1378 C93.7897,0.1378 120.6527,26.9998 120.6527,60.1378 C120.6527,93.2748 93.7897,120.1378 60.6527,120.1378 Z" id="Fill-31" fill="#004600"></path>
            <path d="M74.1527,63.1378 C74.1527,70.9948 67.7597,77.3878 59.9027,77.3878 C52.0457,77.3878 45.6527,70.9948 45.6527,63.1378 C45.6527,55.2808 52.0457,48.8878 59.9027,48.8878 C60.1537,48.8878 60.4027,48.8738 60.6527,48.8878 L60.6527,42.8878 C60.4007,42.8788 60.1537,42.8878 59.9027,42.8878 C48.7187,42.8878 39.6527,51.9528 39.6527,63.1378 C39.6527,74.3218 48.7187,83.3878 59.9027,83.3878 C71.0867,83.3878 80.1527,74.3218 80.1527,63.1378 C80.1527,62.8838 80.1617,62.6398 80.1527,62.3878 L74.1527,62.3878 C74.1657,62.6378 74.1527,62.8838 74.1527,63.1378" id="Fill-32" fill="#FFFFFF"></path>
            <polygon id="Fill-33" fill="#FFFFFF" points="63.6527 35.3878 63.6527 56.3878 81.6527 45.8878"></polygon>
        </g>
    </g>
</svg>