<?xml version="1.0" encoding="UTF-8"?>
<svg width="68px" height="68px" viewBox="0 0 68 68" version="1.1" xmlns="http://www.w3.org/2000/svg" xmlns:xlink="http://www.w3.org/1999/xlink">
    <title>settings</title>
    <g id="settings" stroke="none" stroke-width="1" fill="none" fill-rule="evenodd">
        <g id="Group-3" fill="#027802">
            <path d="M32.1149,64.9149 L32.1149,64.9149 C14.4409,64.9149 0.1149,50.5879 0.1149,32.9149 C0.1149,15.2419 14.4409,0.9149 32.1149,0.9149 C49.7879,0.9149 64.1149,15.2419 64.1149,32.9149 C64.1149,50.5879 49.7879,64.9149 32.1149,64.9149" id="Fill-1"></path>
        </g>
        <path d="M33.1489511,34.7714691 C31.6209261,35.4044762 29.8648973,34.677468 29.2298869,33.1474509 C28.5958765,31.6174337 29.3228884,29.863414 30.8519135,29.2284069 C32.3809385,28.5953998 34.1369673,29.3224079 34.7719777,30.8514251 C35.405988,32.3824423 34.6759761,34.138462 33.1489511,34.7714691 M43.7661249,34.7914693 L41.080081,33.6774568 C41.2830843,32.5844445 41.2940845,31.4494318 41.085081,30.3204191 L43.7661249,29.2094067 C43.9591281,29.1284058 44.0511296,28.9064033 43.9711283,28.7144011 L42.7891089,25.858369 C42.7101076,25.6663669 42.487104,25.5743659 42.2951008,25.6533667 L39.6110569,26.7643792 C38.9610463,25.8193686 38.150033,25.0223597 37.234018,24.3933526 L38.3460362,21.7073225 C38.4260375,21.5133203 38.335036,21.2913178 38.1410328,21.2113169 L35.2859861,20.0283036 C35.0939829,19.9493027 34.8719793,20.0413038 34.792978,20.2343059 L33.6789598,22.9203361 C32.5869419,22.7173338 31.4499233,22.7073337 30.3219048,22.917336 L29.2088866,20.2343059 C29.1288853,20.0413038 28.9068816,19.9493027 28.7138785,20.0283036 L25.8588317,21.2113169 C25.6668286,21.2923178 25.5738271,21.5143203 25.6538284,21.7073225 L26.7648466,24.3903526 C25.8188311,25.0403599 25.0238181,25.850369 24.3948078,26.7663792 L21.7077638,25.6533667 C21.5147606,25.5743659 21.292757,25.6663669 21.2127557,25.858369 L20.0297363,28.7144011 C19.950735,28.9064033 20.0427365,29.1284058 20.2347396,29.2094067 L22.9207836,30.3224192 C22.7187803,31.4144314 22.7077801,32.5494441 22.9177836,33.6784568 L20.2337396,34.7914693 C20.0417365,34.8714702 19.948735,35.0924727 20.0287363,35.2864749 L21.2127557,38.1415069 C21.292757,38.3345091 21.5147606,38.4265101 21.7077638,38.3465092 L24.3908077,37.2354967 C25.0418184,38.1815074 25.8508316,38.9775163 26.7668466,39.6055233 L25.6548284,42.2935535 C25.5748271,42.4855557 25.6668286,42.7085582 25.8598317,42.7885591 L28.7148785,43.9705723 C28.9078817,44.0515733 29.1288853,43.9595722 29.2098866,43.76557 L30.3229048,41.0795399 C31.4159227,41.2815422 32.5509413,41.2935423 33.6809598,41.0835399 L34.792978,43.76557 C34.8729793,43.9595722 35.094983,44.0505732 35.2879861,43.9705723 L38.1430329,42.7885591 C38.336036,42.7085582 38.4280375,42.4855557 38.3480362,42.2935535 L37.236018,39.6095234 C38.1820335,38.9595161 38.9780465,38.149507 39.6070568,37.2344967 L42.2951008,38.3465092 C42.486104,38.4265101 42.7101076,38.3345091 42.7891089,38.1415069 L43.9711283,35.2864749 C44.0511296,35.0924727 43.9591281,34.8694702 43.7661249,34.7914693" id="Fill-4" fill="#FFFFFF"></path>
    </g>
</svg>